<svg xmlns="http://www.w3.org/2000/svg" viewBox="0 0 120 120">
  <defs>
    <linearGradient id="g" x1="0" y1="1" x2="1" y2="0"><stop offset="0" stop-color="#0B1F3A"></stop><stop offset=".55" stop-color="#1E3A5F"></stop><stop offset="1" stop-color="#22D3EE"></stop></linearGradient>
    <clipPath id="c"><circle cx="58" cy="66" r="30"></circle></clipPath>
  </defs>
  <g stroke="#9CA3AF" stroke-width="1.5" fill="none" opacity="0.85">
    <circle cx="58" cy="66" r="30"></circle>
    <g clip-path="url(#c)"><ellipse cx="58" cy="66" rx="12" ry="30"></ellipse><ellipse cx="58" cy="66" rx="24" ry="30"></ellipse><line x1="28" y1="66" x2="88" y2="66"></line><ellipse cx="58" cy="66" rx="30" ry="11"></ellipse><ellipse cx="58" cy="66" rx="30" ry="22"></ellipse></g>
  </g>
  <g transform="rotate(-24 60 60)"><ellipse cx="60" cy="58" rx="46" ry="16" fill="none" stroke="#1E3A5F" stroke-width="5"></ellipse></g>
  <g fill="url(#g)"><path d="M40 74 C 52 54 70 38 96 26 C 90 44 78 60 58 74 C 52 75 45 75 40 74 Z"></path><path d="M40 80 C 50 67 64 59 86 53 C 78 65 65 75 51 81 C 47 81 43 81 40 80 Z"></path></g>
</svg>